HIERARCHY
ROOT Hips
{
	OFFSET 0.000000 89.005402 0.000000
	CHANNELS 6 Xposition Yposition Zposition Xrotation Yrotation Zrotation
	JOINT Spine
	{
		OFFSET 0.116900 10.681000 0.373400
		CHANNELS 3 Xrotation Yrotation Zrotation
		JOINT Spine1
		{
			OFFSET 0.000000 13.840401 0.053500
			CHANNELS 3 Xrotation Yrotation Zrotation
			JOINT Spine2
			{
				OFFSET 0.000000 14.712700 -0.366200
				CHANNELS 3 Xrotation Yrotation Zrotation
				JOINT Neck
				{
					OFFSET 0.000000 35.415497 -3.314200
					CHANNELS 3 Xrotation Yrotation Zrotation
					JOINT Head
					{
						OFFSET 0.000000 16.899200 1.218300
						CHANNELS 3 Xrotation Yrotation Zrotation
						JOINT HeadTop_End
						{
							OFFSET 0.000000 22.206207 2.192500
							CHANNELS 3 Xrotation Yrotation Zrotation
							End Site
							{
								OFFSET 0.000000 22.314178 0.000000
							}
						}
					}
				}
				JOINT LeftShoulder
				{
					OFFSET 12.896400 26.716293 -4.548400
					CHANNELS 3 Xrotation Yrotation Zrotation
					JOINT LeftArm
					{
						OFFSET 19.027000 -4.857010 -1.718400
						CHANNELS 3 Xrotation Yrotation Zrotation
						JOINT LeftForeArm
						{
							OFFSET 24.179897 0.000000 0.000000
							CHANNELS 3 Xrotation Yrotation Zrotation
							JOINT LeftHand
							{
								OFFSET 27.156403 0.000000 0.000000
								CHANNELS 3 Xrotation Yrotation Zrotation
								JOINT LeftHandIndex1
								{
									OFFSET 16.441200 0.000000 0.000000
									CHANNELS 3 Xrotation Yrotation Zrotation
									JOINT LeftHandIndex2
									{
										OFFSET 4.821899 0.000000 0.000000
										CHANNELS 3 Xrotation Yrotation Zrotation
										JOINT LeftHandIndex3
										{
											OFFSET 6.386497 0.000000 0.000000
											CHANNELS 3 Xrotation Yrotation Zrotation
											JOINT LeftHandIndex4
											{
												OFFSET 5.188988 0.000000 0.000000
												CHANNELS 3 Xrotation Yrotation Zrotation
												End Site
												{
													OFFSET -0.178703 5.185913 0.000177
												}
											}
										}
									}
								}
								JOINT LeftHandThumb1
								{
									OFFSET 6.534897 -5.032593 5.900300
									CHANNELS 3 Xrotation Yrotation Zrotation
									JOINT LeftHandThumb2
									{
										OFFSET 3.818176 -2.204422 2.204423
										CHANNELS 3 Xrotation Yrotation Zrotation
										JOINT LeftHandThumb3
										{
											OFFSET 3.252098 -1.877594 1.877601
											CHANNELS 3 Xrotation Yrotation Zrotation
											JOINT LeftHandThumb4
											{
												OFFSET 5.251778 -3.032120 3.032117
												CHANNELS 3 Xrotation Yrotation Zrotation
												End Site
												{
													OFFSET 0.000023 6.780014 0.000000
												}
											}
										}
									}
								}
							}
						}
					}
				}
				JOINT RightShoulder
				{
					OFFSET -12.896300 26.716293 -4.548400
					CHANNELS 3 Xrotation Yrotation Zrotation
					JOINT RightArm
					{
						OFFSET -19.027000 -4.857010 -1.718400
						CHANNELS 3 Xrotation Yrotation Zrotation
						JOINT RightForeArm
						{
							OFFSET -24.179897 0.000000 0.000000
							CHANNELS 3 Xrotation Yrotation Zrotation
							JOINT RightHand
							{
								OFFSET -27.156403 0.000000 0.000000
								CHANNELS 3 Xrotation Yrotation Zrotation
								JOINT RightHandThumb1
								{
									OFFSET -6.591202 -4.852203 5.988100
									CHANNELS 3 Xrotation Yrotation Zrotation
									JOINT RightHandThumb2
									{
										OFFSET -3.818176 -2.204422 2.204423
										CHANNELS 3 Xrotation Yrotation Zrotation
										JOINT RightHandThumb3
										{
											OFFSET -3.252098 -1.877594 1.877601
											CHANNELS 3 Xrotation Yrotation Zrotation
											JOINT RightHandThumb4
											{
												OFFSET -5.251778 -3.032120 3.032117
												CHANNELS 3 Xrotation Yrotation Zrotation
												End Site
												{
													OFFSET -0.000023 6.780014 0.000000
												}
											}
										}
									}
								}
								JOINT RightHandIndex1
								{
									OFFSET -16.029404 0.000000 0.000000
									CHANNELS 3 Xrotation Yrotation Zrotation
									JOINT RightHandIndex2
									{
										OFFSET -5.213303 0.000000 0.000000
										CHANNELS 3 Xrotation Yrotation Zrotation
										JOINT RightHandIndex3
										{
											OFFSET -6.386528 0.000000 0.000000
											CHANNELS 3 Xrotation Yrotation Zrotation
											JOINT RightHandIndex4
											{
												OFFSET -5.189026 0.000000 0.000000
												CHANNELS 3 Xrotation Yrotation Zrotation
												End Site
												{
													OFFSET 0.236702 5.183624 0.001972
												}
											}
										}
									}
								}
							}
						}
					}
				}
			}
		}
	}
	JOINT LeftUpLeg
	{
		OFFSET 14.073000 -7.904099 -1.463000
		CHANNELS 3 Xrotation Yrotation Zrotation
		JOINT LeftLeg
		{
			OFFSET -0.109806 -34.073280 4.093200
			CHANNELS 3 Xrotation Yrotation Zrotation
			JOINT LeftFoot
			{
				OFFSET 0.109806 -29.899420 -6.319000
				CHANNELS 3 Xrotation Yrotation Zrotation
				JOINT LeftToeBase
				{
					OFFSET 1.551100 -14.988700 20.535801
					CHANNELS 3 Xrotation Yrotation Zrotation
					JOINT LeftToe_End
					{
						OFFSET 0.221200 0.570800 13.248301
						CHANNELS 3 Xrotation Yrotation Zrotation
						End Site
						{
							OFFSET 0.000000 13.262435 0.000000
						}
					}
				}
			}
		}
	}
	JOINT RightUpLeg
	{
		OFFSET -13.839300 -7.904099 -1.463000
		CHANNELS 3 Xrotation Yrotation Zrotation
		JOINT RightLeg
		{
			OFFSET 0.109694 -34.073219 4.093300
			CHANNELS 3 Xrotation Yrotation Zrotation
			JOINT RightFoot
			{
				OFFSET -0.109694 -29.899384 -6.319200
				CHANNELS 3 Xrotation Yrotation Zrotation
				JOINT RightToeBase
				{
					OFFSET -1.551100 -14.988700 20.535801
					CHANNELS 3 Xrotation Yrotation Zrotation
					JOINT RightToe_End
					{
						OFFSET -0.221200 0.570900 13.248299
						CHANNELS 3 Xrotation Yrotation Zrotation
						End Site
						{
							OFFSET 0.000000 13.262440 0.000000
						}
					}
				}
			}
		}
	}
}
MOTION
Frames: 6
Frame Time: 0.033333
7.931520 162.319382 -0.619631 -21.118916 3.357013 -4.243010 3.570706 0.646669 0.623786 7.698510 0.165773 0.686518 7.650374 0.322714 0.996185 -7.555754 -1.047954 2.184330 12.537364 -1.453525 9.761665 0.000000 -0.000000 -0.000000 2.561757 -15.182763 15.876787 -72.339961 -46.070756 -87.009131 0.000162 -103.844530 0.000169 -57.026974 0.345002 -6.321977 -0.000005 0.000004 0.000002 0.000007 0.000003 -0.000024 -0.000013 0.000005 0.000002 -0.000000 -0.000001 -0.000001 -1.540037 3.690189 6.142356 3.939059 7.948707 0.746804 -0.579443 1.575006 2.538714 -0.000003 -0.000000 0.000000 1.930122 5.937713 4.273989 -92.229916 61.481483 89.420072 -0.000038 69.588173 0.000033 -77.854888 -1.743546 39.993329 -1.849249 -3.581792 -6.586138 4.637191 -8.634134 -0.225408 -1.273742 0.137312 -2.094870 0.000001 -0.000000 0.000002 -0.000002 -0.000002 0.000001 0.000006 -0.000005 0.000007 0.000011 -0.000004 0.000004 0.000000 -0.000001 0.000001 38.668621 29.260066 6.001556 9.834256 3.642840 -5.684728 -27.698307 2.982003 -8.373845 0.000025 0.000003 0.000001 -0.000000 -0.000001 -0.000000 -1.659728 -9.216084 -1.560347 27.012210 -3.317941 -0.156664 -1.068903 -0.285480 3.195207 0.000003 -0.000000 -0.000001 -0.000000 0.000000 -0.000000 
7.899732 162.270584 -0.237814 -21.019373 3.594526 -4.286943 3.622426 0.734896 0.641386 7.738676 0.374343 0.757265 7.685010 0.534636 1.052379 -7.662393 -1.012281 2.080688 12.242827 -1.440019 9.462556 0.000000 0.000000 0.000000 2.547621 -15.069976 16.041927 -73.062417 -45.719743 -87.762562 0.000035 -103.168566 0.000039 -56.265305 0.206961 -6.655353 -0.000004 0.000002 0.000003 0.000005 0.000005 -0.000024 -0.000014 0.000007 0.000002 -0.000000 -0.000001 0.000002 -1.540039 3.690185 6.142355 3.939057 7.948712 0.746803 -0.579446 1.575004 2.538714 -0.000002 -0.000001 0.000000 1.827036 5.395087 4.149858 -91.986023 61.137426 89.541191 -0.000008 70.722531 0.000010 -77.004605 -1.599241 40.271359 -1.849247 -3.581790 -6.586134 4.637192 -8.634129 -0.225408 -1.273739 0.137313 -2.094869 0.000002 0.000000 0.000002 -0.000001 -0.000002 0.000002 0.000005 -0.000005 0.000007 0.000011 -0.000002 0.000007 -0.000001 -0.000001 -0.000001 38.941186 29.601592 6.152593 9.479259 3.001107 -5.696461 -27.843220 2.893149 -8.087750 -0.000001 -0.000001 -0.000000 -0.000000 -0.000001 -0.000000 -1.492973 -9.156628 -1.444062 27.408239 -3.508270 -0.137082 -1.548138 -0.310351 3.251767 -0.000009 -0.000002 0.000001 -0.000000 0.000000 -0.000000 
7.835518 162.094635 0.146822 -20.774611 3.455462 -4.356263 3.688274 0.818686 0.661219 7.801725 0.553483 0.860039 7.741406 0.714895 1.147180 -7.514000 -0.949871 1.847191 11.992624 -1.438668 9.296794 -0.000000 -0.000000 -0.000001 2.414572 -14.420751 16.022007 -74.162016 -45.514274 -88.590750 0.000320 -102.350672 0.000321 -56.505161 0.078190 -7.401795 -0.000003 0.000003 0.000003 0.000004 0.000008 -0.000022 -0.000012 0.000010 0.000001 -0.000001 0.000002 -0.000000 -1.540037 3.690186 6.142355 3.939058 7.948704 0.746806 -0.579444 1.575004 2.538715 0.000000 -0.000000 0.000000 1.741556 5.021111 3.678099 -92.119157 60.526835 90.173243 0.000053 71.814569 -0.000052 -76.587280 -2.214338 40.257599 -1.849246 -3.581790 -6.586137 4.637190 -8.634134 -0.225406 -1.273739 0.137309 -2.094871 0.000001 0.000001 -0.000001 -0.000002 -0.000002 0.000001 0.000004 -0.000004 0.000005 0.000010 -0.000000 0.000004 -0.000001 0.000002 0.000000 39.192517 30.032762 6.257380 9.119271 2.639164 -6.147399 -28.082606 2.931458 -8.129852 -0.000006 -0.000006 -0.000002 0.000000 -0.000001 0.000000 -2.185934 -9.078171 -1.499389 28.721027 -3.272004 -0.051349 -2.415010 -0.333601 3.241500 0.000008 -0.000001 0.000000 0.000000 0.000000 -0.000000 
7.721052 161.826324 0.512079 -20.414686 2.936291 -4.427294 3.779573 0.900441 0.681408 7.896260 0.714552 0.981071 7.828821 0.875198 1.265524 -7.178391 -0.893818 1.698279 11.511749 -1.429169 9.213781 0.000000 -0.000000 -0.000000 2.214610 -13.321052 16.107162 -75.759543 -45.401729 -89.371577 0.000104 -101.458157 0.000108 -58.043071 0.020891 -8.285896 -0.000003 0.000004 0.000003 0.000006 0.000005 -0.000024 -0.000010 0.000006 0.000003 -0.000001 -0.000001 0.000002 -1.540041 3.690188 6.142356 3.939056 7.948704 0.746807 -0.579444 1.575007 2.538713 -0.000001 0.000001 0.000000 1.669497 4.701089 3.208017 -93.615529 59.834916 91.905612 -0.000046 72.250772 0.000040 -76.566960 -3.107350 39.988804 -1.849249 -3.581791 -6.586135 4.637190 -8.634134 -0.225406 -1.273742 0.137312 -2.094867 0.000001 -0.000000 -0.000000 -0.000003 -0.000001 0.000001 0.000004 -0.000005 0.000008 0.000010 0.000001 0.000005 0.000000 0.000001 0.000002 39.707421 30.653954 6.353392 8.543207 2.751192 -6.937615 -28.001376 3.105156 -8.620447 0.000006 -0.000005 0.000000 0.000000 -0.000002 -0.000000 -3.336702 -8.959602 -1.569592 30.655118 -2.882517 0.127009 -3.491533 -0.354661 3.141267 0.000007 -0.000001 -0.000000 -0.000000 -0.000000 -0.000000 
7.537944 161.574326 0.865471 -19.972465 2.211445 -4.489811 3.889389 0.990132 0.682781 8.030074 0.876404 1.094429 7.956381 1.032748 1.378113 -6.854552 -0.855205 1.719529 10.427837 -1.379139 9.081164 -0.000000 0.000000 0.000001 2.028096 -12.103584 16.596070 -77.771942 -45.068040 -89.997250 0.000176 -100.809098 0.000190 -60.165190 0.466550 -8.338388 -0.000005 0.000004 0.000003 0.000006 0.000004 -0.000020 -0.000013 0.000006 0.000003 -0.000001 0.000001 -0.000002 -1.540040 3.690189 6.142357 3.939056 7.948704 0.746805 -0.579446 1.575005 2.538714 -0.000002 0.000002 0.000000 1.615282 4.401821 2.969316 -96.801887 59.154902 94.577889 0.000044 71.528425 -0.000048 -76.630474 -2.547554 39.349727 -1.849245 -3.581790 -6.586136 4.637192 -8.634133 -0.225407 -1.273739 0.137310 -2.094868 0.000000 -0.000001 -0.000000 -0.000001 -0.000005 0.000001 0.000005 -0.000007 0.000009 0.000012 0.000004 0.000005 0.000000 0.000001 0.000001 40.399579 30.932469 6.170333 7.882345 3.210362 -7.478228 -27.687471 3.315957 -9.292182 0.000000 -0.000002 -0.000002 -0.000000 0.000001 -0.000000 -4.544457 -8.761065 -1.581874 32.493368 -2.484524 0.226840 -4.079340 -0.350778 2.951902 -0.000013 -0.000001 0.000001 -0.000000 -0.000001 0.000000 
7.295698 161.427002 1.259005 -19.411194 1.544180 -4.592970 4.005751 1.100448 0.637030 8.218791 1.056885 1.171141 8.141113 1.203374 1.453087 -6.665696 -0.804528 1.690092 8.617318 -1.297528 8.791845 -0.000000 0.000000 0.000000 1.904831 -11.136079 17.540855 -79.849433 -44.063821 -90.431384 0.000026 -100.749231 0.000031 -61.134380 1.965232 -6.432275 -0.000005 0.000004 0.000002 0.000005 0.000005 -0.000021 -0.000012 0.000007 0.000002 -0.000002 0.000001 0.000001 -1.540040 3.690184 6.142356 3.939058 7.948707 0.746806 -0.579445 1.575004 2.538714 -0.000002 -0.000001 -0.000000 1.579339 4.273431 2.620663 -100.514088 58.308676 96.909879 0.000040 69.841997 -0.000047 -76.223893 1.600412 37.944071 -1.849248 -3.581792 -6.586136 4.637190 -8.634131 -0.225406 -1.273741 0.137308 -2.094871 -0.000002 -0.000002 0.000001 -0.000003 -0.000003 -0.000000 0.000004 -0.000004 0.000007 0.000011 -0.000003 0.000003 0.000000 -0.000001 0.000001 40.565409 30.727932 5.924523 7.530998 3.753840 -7.591559 -27.437278 3.495197 -9.890135 -0.000002 -0.000005 0.000001 -0.000000 0.000001 -0.000000 -5.881399 -8.511818 -1.524539 33.890620 -2.148575 0.262731 -3.994085 -0.326319 2.744427 -0.000016 -0.000002 0.000001 0.000000 -0.000001 0.000000 
